#!OML:ASF X:\für Bonn\!DataBase\2005_08_11_Bastian_Final\c3d\Bastian.ASF
:FULLY-SPECIFIED
:DEGREES
97
root -3.1435 17.3854 2.59988 151.382 -10.5999 -168.545
lowerback 28.1873 -4.84437 2.76108
upperback 11.0764 -8.38691 1.59933
thorax -3.06373 -5.36184 2.73778
lowerneck -7.3469 -5.54199 -5.27114
upperneck -6.65617 -6.03509 12.4475
head -0.176928 -2.62712 4.45576
rclavicle 1.03368e-014 1.55052e-014
rhumerus -49.7825 35.5305 -101.724
rradius 43.9215
rwrist -32.2406
rhand -37.4012 6.70283
rfingers 7.12502
rthumb -10.4617 -23.0169
lclavicle 1.03368e-014 1.55052e-014
lhumerus 19.6988 -32.7118 72.0765
lradius 72.354
lwrist -16.5017
lhand -53.489 -7.52804
lfingers 7.12502
lthumb -25.9341 20.7229
rfemur -44.8243 -12.2694 24.3974
rtibia 110.253
rfoot -0.323507 8.46808
rtoes -13.844
lfemur 19.5017 -0.455541 -10.9159
ltibia 25.1157
lfoot -11.3014 -9.22518
ltoes -9.57758
98
root -3.13637 17.3906 2.58489 151.836 -10.2849 -168.674
lowerback 27.4372 -4.73029 2.73342
upperback 10.9 -8.16051 1.54602
thorax -2.93034 -5.20092 2.55307
lowerneck -7.01216 -5.56484 -5.32777
upperneck -6.63661 -6.08776 12.5006
head -0.216366 -2.66956 4.48621
rclavicle -5.05907e-014 -1.11319e-014
rhumerus -48.8628 34.8834 -100.766
rradius 44.5559
rwrist -32.0622
rhand -37.5517 7.15101
rfingers 7.12502
rthumb -10.6068 -22.5613
lclavicle -5.05907e-014 -1.11319e-014
lhumerus 18.5186 -33.718 71.7951
lradius 71.071
lwrist -15.7045
lhand -52.9608 -7.4193
lfingers 7.12502
lthumb -25.4282 20.9047
rfemur -42.8361 -11.4862 24.1157
rtibia 108.225
rfoot -0.332861 8.35092
rtoes -14.4808
lfemur 19.3695 -0.352402 -10.9727
ltibia 24.7546
lfoot -11.2657 -8.96096
ltoes -9.67006
99
root -3.13216 17.4532 2.5712 152.328 -9.95963 -168.815
lowerback 26.6352 -4.60313 2.72274
upperback 10.7059 -7.90657 1.48618
thorax -2.79093 -5.02239 2.34331
lowerneck -6.64245 -5.60965 -5.43465
upperneck -6.61387 -6.16838 12.6027
head -0.254269 -2.72626 4.53969
rclavicle 1.39646e-013 -7.39479e-014
rhumerus -48.0323 34.1916 -99.8979
rradius 45.2201
rwrist -31.8511
rhand -37.7297 7.52667
rfingers 7.12502
rthumb -10.7786 -22.1768
lclavicle 1.39646e-013 -7.39479e-014
lhumerus 17.2466 -34.8197 71.6463
lradius 69.7688
lwrist -14.9107
lhand -52.3486 -7.13681
lfingers 7.12502
lthumb -24.8416 21.2694
rfemur -40.4904 -10.6953 23.8948
rtibia 105.784
rfoot -0.515797 8.13108
rtoes -15.113
lfemur 19.2622 -0.244766 -11.0474
ltibia 24.3242
lfoot -11.2476 -8.66533
ltoes -9.89846
100
root -3.12345 17.4528 2.55414 152.805 -9.65226 -168.931
lowerback 25.8404 -4.48708 2.74501
upperback 10.5153 -7.6629 1.42274
thorax -2.64871 -4.84972 2.11928
lowerneck -6.29539 -5.6526 -5.50735
upperneck -6.56057 -6.25239 12.6798
head -0.281564 -2.78432 4.57912
rclavicle 1.37161e-014 -1.11319e-014
rhumerus -47.2893 33.5374 -99.1373
rradius 45.9376
rwrist -31.6744
rhand -37.9696 7.87053
rfingers 7.12502
rthumb -11.0099 -21.8207
lclavicle 1.37161e-014 -1.11319e-014
lhumerus 15.9133 -35.9754 71.5758
lradius 68.4552
lwrist -14.0016
lhand -51.7096 -6.83296
lfingers 7.12502
lthumb -24.2291 21.6563
rfemur -38.6343 -9.94617 23.754
rtibia 103.646
rfoot -0.627935 7.81078
rtoes -15.4406
lfemur 19.0595 -0.161332 -11.0921
ltibia 24.0481
lfoot -11.2656 -8.4172
ltoes -9.90081
101
root -3.11443 17.4515 2.53563 153.294 -9.33456 -169.064
lowerback 25.0515 -4.3633 2.73876
upperback 10.3043 -7.41226 1.36236
thorax -2.52271 -4.67318 1.91909
lowerneck -5.96092 -5.68412 -5.55044
upperneck -6.46566 -6.32961 12.72
head -0.297991 -2.83939 4.60203
rclavicle -1.01778e-013 6.59965e-014
rhumerus -46.6723 32.9365 -98.4969
rradius 46.714
rwrist -31.4965
rhand -38.2549 8.21724
rfingers 7.12502
rthumb -11.2851 -21.4592
lclavicle -1.01778e-013 6.59965e-014
lhumerus 14.4739 -37.1533 71.6328
lradius 67.1521
lwrist -13.0797
lhand -51.0663 -6.44253
lfingers 7.12502
lthumb -23.6122 22.1276
rfemur -36.8517 -9.22706 23.6407
rtibia 101.486
rfoot -0.718023 7.42004
rtoes -15.244
lfemur 18.8175 -0.0489136 -11.1488
ltibia 23.8541
lfoot -11.347 -8.15907
ltoes -10.1332
102
root -3.10423 17.448 2.51674 153.788 -9.03326 -169.2
lowerback 24.2631 -4.25535 2.67858
upperback 10.0834 -7.19419 1.3089
thorax -2.39559 -4.51476 1.76958
lowerneck -5.59254 -5.68948 -5.58395
upperneck -6.37944 -6.37273 12.7538
head -0.326262 -2.87938 4.62376
rclavicle 4.60683e-014 -4.37326e-014
rhumerus -46.1115 32.4397 -97.9589
rradius 47.483
rwrist -31.2403
rhand -38.5039 8.47767
rfingers 7.12502
rthumb -11.5253 -21.1855
lclavicle 4.60683e-014 -4.37326e-014
lhumerus 12.9274 -38.2587 71.8457
lradius 65.7591
lwrist -12.1922
lhand -50.5001 -6.11644
lfingers 7.12502
lthumb -23.069 22.5227
rfemur -35.1355 -8.56306 23.5688
rtibia 99.3594
rfoot -0.865264 6.92335
rtoes -15.2795
lfemur 18.3162 0.0572084 -11.2109
ltibia 24.2
lfoot -11.6907 -7.98081
ltoes -10.2139
103
root -3.09311 17.4415 2.49752 154.29 -8.73903 -169.348
lowerback 23.4651 -4.14206 2.59808
upperback 9.8676 -6.9768 1.25505
thorax -2.25101 -4.35886 1.63332
lowerneck -5.27218 -5.68517 -5.56989
upperneck -6.26734 -6.40481 12.7634
head -0.343014 -2.91191 4.62925
rclavicle 5.08889e-014 -2.3059e-014
rhumerus -45.5488 31.9527 -97.4492
rradius 48.2468
rwrist -30.9346
rhand -38.7622 8.80863
rfingers 7.12502
rthumb -11.7744 -20.8404
lclavicle 5.08889e-014 -2.3059e-014
lhumerus 11.3422 -39.3759 72.142
lradius 64.372
lwrist -11.293
lhand -49.9955 -5.85964
lfingers 7.12502
lthumb -22.5848 22.8392
rfemur -33.4662 -7.94536 23.523
rtibia 97.193
rfoot -0.991767 6.32619
rtoes -15.1857
lfemur 17.7728 0.127237 -11.3072
ltibia 24.6161
lfoot -12.0764 -7.76338
ltoes -10.121
104
root -3.08094 17.4315 2.47734 154.81 -8.44541 -169.481
lowerback 22.656 -4.04134 2.51448
upperback 9.62834 -6.77108 1.20847
thorax -2.12043 -4.20745 1.51388
lowerneck -4.90732 -5.67834 -5.52402
upperneck -6.16399 -6.43894 12.7184
head -0.373028 -2.94874 4.61446
rclavicle 4.87519e-014 -3.97569e-014
rhumerus -45.0387 31.4879 -96.9967
rradius 49.0397
rwrist -30.6492
rhand -38.9049 9.15344
rfingers 7.12502
rthumb -11.912 -20.4877
lclavicle 4.87519e-014 -3.97569e-014
lhumerus 9.6233 -40.4218 72.6383
lradius 62.9263
lwrist -10.4168
lhand -49.5278 -5.70934
lfingers 7.12502
lthumb -22.1358 23.0434
rfemur -31.8577 -7.36148 23.5252
rtibia 94.9954
rfoot -1.10496 5.64813
rtoes -14.8878
lfemur 17.1736 0.237608 -11.3619
ltibia 25.1
lfoot -12.5106 -7.59906
ltoes -10.3764
105
root -3.06818 17.42 2.4549 155.341 -8.16368 -169.632
lowerback 21.8116 -3.9363 2.4106
upperback 9.39411 -6.56649 1.16652
thorax -1.95936 -4.0585 1.41049
lowerneck -4.59724 -5.66668 -5.50525
upperneck -6.02106 -6.4659 12.6926
head -0.381514 -2.97832 4.60813
rclavicle -9.59136e-015 -2.38542e-015
rhumerus -44.5168 31.0402 -96.5598
rradius 49.8582
rwrist -30.3729
rhand -39.0394 9.47919
rfingers 7.12502
rthumb -12.0417 -20.1544
lclavicle -9.59136e-015 -2.38542e-015
lhumerus 7.8181 -41.3899 73.3165
lradius 61.4193
lwrist -9.62295
lhand -49.1425 -5.63289
lfingers 7.12502
lthumb -21.7659 23.1633
rfemur -30.2887 -6.81827 23.5199
rtibia 92.7971
rfoot -1.25176 4.89811
rtoes -14.4971
lfemur 16.4577 0.366242 -11.433
ltibia 25.8259
lfoot -13.0473 -7.47568
ltoes -10.5217
106
root -3.05446 17.4091 2.42823 155.861 -7.87737 -169.752
lowerback 20.9368 -3.83871 2.31259
upperback 9.16107 -6.37264 1.14319
thorax -1.77497 -3.91663 1.32666
lowerneck -4.26183 -5.65177 -5.47912
upperneck -5.89991 -6.48771 12.6456
head -0.402216 -3.0067 4.59555
rclavicle -4.82053e-014 1.59028e-014
rhumerus -44.0404 30.6013 -96.1558
rradius 50.6982
rwrist -30.079
rhand -39.1506 9.8779
rfingers 7.12502
rthumb -12.1488 -19.7493
lclavicle -4.82053e-014 1.59028e-014
lhumerus 5.95242 -42.3192 74.1475
lradius 59.8329
lwrist -8.82207
lhand -48.8367 -5.54332
lfingers 7.12502
lthumb -21.4722 23.2866
rfemur -28.7138 -6.30731 23.5621
rtibia 90.5491
rfoot -1.39396 4.08934
rtoes -13.8519
lfemur 15.7567 0.507552 -11.4516
ltibia 26.564
lfoot -13.612 -7.39024
ltoes -10.5849
107
root -3.0377 17.3683 2.3989 156.399 -7.61669 -169.927
lowerback 20.0103 -3.73795 2.16423
upperback 8.93773 -6.18573 1.09341
thorax -1.54782 -3.77927 1.24267
lowerneck -3.97578 -5.63776 -5.42183
upperneck -5.7304 -6.51513 12.5745
head -0.402433 -3.03554 4.56841
rclavicle -7.61345e-014 6.67916e-014
rhumerus -43.525 30.1058 -95.8028
rradius 51.5108
rwrist -29.7478
rhand -39.2086 10.2542
rfingers 7.12502
rthumb -12.2048 -19.3697
lclavicle -7.61345e-014 6.67916e-014
lhumerus 4.09861 -43.2498 75.0035
lradius 58.2019
lwrist -8.04464
lhand -48.4975 -5.2951
lfingers 7.12502
lthumb -21.1464 23.5717
rfemur -27.3456 -5.86191 23.5511
rtibia 88.4396
rfoot -1.53239 3.27871
rtoes -13.1483
lfemur 15.0235 0.643066 -11.5379
ltibia 27.3323
lfoot -14.1718 -7.30041
ltoes -10.685
